<svg width="1265" height="93" viewBox="0 0 1265 93" fill="none" xmlns="http://www.w3.org/2000/svg">
<g clip-path="url(#clip0_43_3)">
<rect width="1265" height="93" rx="13.2857" fill="#1B1B1B"/>
<g opacity="0.2">
<g opacity="0.2" filter="url(#filter0_d_43_3)">
<path d="M190.205 -133C245.375 -133 298.285 -117.003 337.296 -88.5278C376.307 -60.0526 398.223 -21.4321 398.223 18.8378C398.223 59.1076 376.307 97.7282 337.296 126.203C298.285 154.678 245.375 170.676 190.205 170.676H8.18973C1.30621 170.676 -5.29645 168.683 -10.1707 165.135C-15.045 161.588 -17.7931 156.774 -17.8125 151.749V18.8378C-17.8125 -21.4321 4.1036 -60.0526 43.1145 -88.5278C82.1254 -117.003 135.036 -133 190.205 -133Z" fill="white"/>
</g>
<g style="mix-blend-mode:soft-light">
<path d="M276.961 -70.5664C332.131 -70.5664 385.041 -54.5693 424.052 -26.0942C463.063 2.38094 484.979 41.0015 484.979 81.2713V214.183C484.979 219.217 482.239 224.044 477.363 227.604C472.486 231.163 465.873 233.163 458.976 233.163H276.961C221.781 233.163 168.862 217.163 129.844 188.683C90.8262 160.202 68.9063 121.575 68.9062 81.2981C68.9063 41.0212 90.8262 2.39381 129.844 -26.0863C168.862 -54.5664 221.781 -70.5664 276.961 -70.5664Z" fill="white"/>
</g>
<g style="mix-blend-mode:exclusion" opacity="0.2">
<path d="M107.786 169.925C85.5398 147.307 72.271 120.648 69.4394 92.8816C66.6078 65.1149 74.3231 37.316 91.7366 12.543C109.15 -12.2301 135.587 -33.0174 168.14 -47.5324C200.692 -62.0474 238.098 -69.7277 276.244 -69.7284H277.614C311.254 -69.7644 344.397 -63.8009 374.159 -52.3563C390.899 -29.2884 399.184 -3.45308 398.21 22.6416C397.235 48.7362 387.035 74.2037 368.598 96.5718C350.161 118.94 324.115 137.449 292.987 150.301C261.859 163.154 226.707 169.914 190.944 169.925H107.786Z" fill="#0A1C8F"/>
</g>
</g>
</g>
<defs>
<filter id="filter0_d_43_3" x="-33.8125" y="-137" width="448.036" height="335.676" filterUnits="userSpaceOnUse" color-interpolation-filters="sRGB">
<feFlood flood-opacity="0" result="BackgroundImageFix"/>
<feColorMatrix in="SourceAlpha" type="matrix" values="0 0 0 0 0 0 0 0 0 0 0 0 0 0 0 0 0 0 127 0" result="hardAlpha"/>
<feOffset dy="12"/>
<feGaussianBlur stdDeviation="8"/>
<feColorMatrix type="matrix" values="0 0 0 0 0.137255 0 0 0 0 0.0431373 0 0 0 0 0.627451 0 0 0 0.239 0"/>
<feBlend mode="normal" in2="BackgroundImageFix" result="effect1_dropShadow_43_3"/>
<feBlend mode="normal" in="SourceGraphic" in2="effect1_dropShadow_43_3" result="shape"/>
</filter>
<clipPath id="clip0_43_3">
<rect width="1265" height="93" rx="13.2857" fill="white"/>
</clipPath>
</defs>
</svg>
